<?xml version="1.0" encoding="UTF-8"?>
<svg width="311px" height="111px" viewBox="0 0 311 111" version="1.1" xmlns="http://www.w3.org/2000/svg" xmlns:xlink="http://www.w3.org/1999/xlink">
    <title>Sage_Restaurant_Concepts</title>

    <defs>
        <polygon id="path-1" points="0.0273755656 0.208510558 45.5466411 0.208510558 45.5466411 88.7324208 0.0273755656 88.7324208"></polygon>
    </defs>
    <g id="Symbols" stroke="none" stroke-width="1" fill="none" fill-rule="evenodd">
        <g id="Logo-Sage_Restaurant_Concepts">
            <g id="Sage_Restaurant_Concepts" transform="translate(-0.000000, 0.000000)">
                <polyline id="Fill-2" fill="#737E3C" points="284.411595 81.1991214 284.41707 58.176727 305.598458 58.176727 305.590245 49.3252941 284.41707 49.3252941 284.41707 29.4670588 310.255041 29.4670588 310.255041 20.2574623 269.8227 20.2574623 269.8227 90.4748756 310.038318 90.4748756 310.038318 81.2515913 284.411595 81.1991214"></polyline>
                <path d="M192.859035,88.8067911 C183.010675,65.8546606 172.827421,42.1205015 161.97894,19.1487519 L160.853348,16.7629713 L159.800758,19.1820588 C154.792398,30.6939404 149.533096,42.239129 144.446259,53.4033409 C139.18787,64.9453356 133.749257,76.8797134 128.578013,88.8026848 L127.853929,90.4744193 L137.596437,90.4744193 L137.924487,89.8091931 C139.087492,87.4672134 140.143733,84.9860747 141.165754,82.5856938 C142.677798,79.0355392 144.237749,75.371776 146.139894,72.1733974 L170.16241,72.1733974 C171.326327,74.8466214 172.477014,77.5321644 173.627244,80.2177074 C174.969103,83.3512971 176.357044,86.5916516 177.744529,89.7585483 L178.058891,90.4744193 L193.574906,90.4744193 L192.859035,88.8067911 Z M166.298805,63.6792157 L149.753925,63.6792157 C151.040577,60.5716327 152.450419,57.5370513 153.820109,54.5896154 C155.275121,51.4555694 156.770283,48.2362029 158.134498,44.8968401 C160.668563,50.250132 163.256011,56.2020362 166.298805,63.6792157 L166.298805,63.6792157 Z" id="Fill-3" fill="#737E3C"></path>
                <polyline id="Fill-4" fill="#737E3C" points="254.967349 40.0121267 255.233805 39.9929638 255.205973 39.8013348 254.967349 40.0121267"></polyline>
                <path d="M241.898254,60.0898228 L241.898254,76.8377376 C238.437526,79.3827526 235.306218,80.4640875 231.226346,80.5466704 C216.518367,80.8614894 208.973205,67.7339932 208.042436,54.742006 C207.410517,45.9170362 209.701851,37.9972851 214.329235,33.0108258 C217.555445,29.5336727 221.79592,27.6881033 226.649608,27.6744155 C236.311814,27.6744155 238.714476,34.6688725 239.029295,40.5363688 L239.089977,41.6856863 L254.721882,37.121267 C252.168654,25.177764 242.370026,18.5072511 227.635584,18.8216139 C217.708748,19.0397059 209.332281,22.7915271 202.738876,29.9748756 C192.902836,40.6828281 190.511124,58.3519306 196.920656,72.9412821 C202.218741,84.9993062 212.050675,91.9152866 223.892432,91.9152866 C224.079955,91.9152866 224.266109,91.9139178 224.455,91.9111802 C232.941882,91.7537707 238.168333,88.0489442 242.256874,83.562089 L242.256874,90.4753318 L256.491256,90.4753318 L256.491256,57.1505995 L241.898254,60.0898228" id="Fill-5" fill="#737E3C"></path>
                <path d="M108.41819,49.4489404 C107.781252,49.1332089 107.091388,48.8074397 106.37141,48.4666139 C101.378107,46.1054713 94.5406033,42.8696795 93.6372097,37.4073416 C92.8013424,32.353356 95.4389781,28.9683673 98.2445173,27.961859 C101.489891,26.7961161 104.841572,27.5822511 107.065381,29.9835445 C108.915057,31.9796795 109.802937,34.7797436 109.565683,37.8695324 L109.531463,38.3298982 L124.334344,32.9574434 C121.710852,23.2140234 112.019902,18.8111199 102.938058,18.8111199 C102.663846,18.8111199 102.390547,18.8152262 102.11451,18.8220701 C91.1656523,19.1159012 85.5860558,24.3601471 82.8329864,28.7078431 C78.3242308,35.8309653 79.652402,46.4088839 85.8579864,52.7910407 C89.153092,56.1815045 93.3944796,58.3414367 97.1353507,60.2490573 C98.0442195,60.7112481 98.9325566,61.16477 99.7862179,61.6228544 C100.68733,62.1069457 101.601674,62.5636614 102.485905,63.0034955 C106.683035,65.09727 110.309385,66.9045136 111.786753,71.0217986 C112.891357,74.1015498 112.658209,76.8934012 111.111946,79.0907466 C109.357628,81.5846606 106.052941,83.1336614 102.485905,83.1336614 C98.8303544,83.1336614 95.7437594,81.4619268 94.2262406,78.660494 C93.1284804,76.6328771 92.6192949,74.0367609 92.5768627,70.2452451 L92.5613499,68.8659729 L91.4800151,69.0325075 L77.0521795,73.6256712 C78.5227036,85.4906976 88.1849095,90.6742609 97.0044042,91.5448039 C98.2071041,91.6648002 99.4193854,91.7241139 100.60566,91.7241139 C114.754721,91.7241139 125.563507,83.3321342 126.306753,71.7705204 C127.146727,58.7110068 116.321972,53.3577149 108.41819,49.4489404" id="Fill-6" fill="#737E3C"></path>
                <path d="M30.239506,0.215810709 C25.5984351,7.07795249 20.4614103,19.9777753 36.8219608,36.2301923 C47.7242798,47.0622474 54.6813235,55.1421456 54.1269683,69.1397285 C58.8633974,60.3298152 63.1755053,44.3862858 46.2688122,28.2369834 C33.1650415,15.7181373 30.4010219,5.94277903 30.239506,0.215810709" id="Fill-7" fill="#ACA338"></path>
                <g id="Group-11" transform="translate(0.000000, 19.619155)">
                    <mask id="mask-2" fill="white">
                        <use xlink:href="#path-1"></use>
                    </mask>
                    <g id="Clip-9"></g>
                    <path d="M17.4158786,0.208510558 C12.7743514,7.07065234 7.63778281,19.9672813 23.9997021,36.2215234 C34.9015649,47.056316 41.8590649,55.1362142 41.3047097,69.1310596 C46.03977,60.3225151 50.3518778,44.3803544 33.4451848,28.2283145 C20.3441516,15.7108371 17.5787632,5.93547888 17.4158786,0.208510558" id="Fill-8" fill="#737E3C" mask="url(#mask-2)"></path>
                    <path d="M4.59361991,19.808503 C-0.0474509804,26.6720136 -5.18401961,39.5686425 11.1774434,55.8228846 C22.0797624,66.6544834 29.0354374,74.7348379 28.4810822,88.7324208 C33.2165988,79.91977 37.5268816,63.9771531 20.6229261,47.8296757 C7.52234917,35.3121983 4.75513575,25.5354713 4.59361991,19.808503" id="Fill-10" fill="#465230" mask="url(#mask-2)"></path>
                </g>
            </g>
        </g>
    </g>
</svg>