<?xml version="1.0" encoding="UTF-8"?>
<svg width="311px" height="111px" viewBox="0 0 311 111" version="1.1" xmlns="http://www.w3.org/2000/svg" xmlns:xlink="http://www.w3.org/1999/xlink">
    <title>Sage_Hospitality_Group Copy</title>
    <defs>
        <polygon id="path-1" points="0.0273755656 19.9522247 45.5466411 19.9522247 45.5466411 108.476135 0.0273755656 108.476135"></polygon>
    </defs>
    <g id="Symbols" stroke="none" stroke-width="1" fill="none" fill-rule="evenodd">
        <g id="Sage_Hospitality_Group-Copy">
            <polyline id="Fill-1" fill="#FAF4EA" points="284.41707 81.3204864 284.422089 58.3031109 305.598002 58.3031109 305.589789 49.4539593 284.422089 49.4539593 284.422089 29.6011991 310.255041 29.6011991 310.255041 20.3920588 269.831369 20.3920588 269.831369 90.5939593 310.037862 90.5939593 310.037862 81.3729563 284.41707 81.3204864"></polyline>
            <path d="M192.885498,88.9258748 C183.039419,65.9787632 172.857534,42.2505354 162.01316,19.2842609 L160.887112,16.8984804 L159.834977,19.3180241 C154.82753,30.8267119 149.569597,42.3687066 144.484129,53.530181 C139.226652,65.0694382 133.789408,77.0024472 128.620445,88.9217685 L127.895449,90.5939593 L137.635675,90.5939593 L137.964182,89.9296456 C139.125362,87.5867534 140.182971,85.1069834 141.20408,82.7061463 C142.715667,79.1578167 144.275618,75.4949661 146.177764,72.295675 L170.194348,72.295675 C171.356897,74.9684427 172.507583,77.6544419 173.657813,80.3395287 C174.999672,83.4712934 176.387157,86.7111916 177.774642,89.8785445 L178.088548,90.5939593 L193.600913,90.5939593 L192.885498,88.9258748 Z M166.330743,63.804687 L149.789514,63.804687 C151.075709,60.6966478 152.485094,57.6643477 153.855241,54.7169118 C155.309796,51.583322 156.805415,48.364868 158.170087,45.0268741 C160.702327,50.3778846 163.288861,56.3279638 166.330743,63.804687 L166.330743,63.804687 Z" id="Fill-2" fill="#FAF4EA"></path>
            <polyline id="Fill-3" fill="#C53E2B" points="254.979212 40.0198831 255.246124 40.0011765 255.216467 39.808635 254.979212 40.0198831"></polyline>
            <path d="M241.913311,60.2162066 L241.913311,76.9609276 C238.453495,79.5045739 235.3231,80.5849962 231.243684,80.6684917 C216.538443,80.983767 208.996018,67.858552 208.064793,54.8693024 C207.43333,46.0470701 209.723296,38.1282315 214.350679,33.1426848 C217.576889,29.6669005 221.815083,27.8213311 226.667402,27.8067308 C236.327783,27.8067308 238.729989,34.8011878 239.043895,40.6677715 L239.10549,41.815264 L254.733744,37.2526697 C252.180973,25.3119042 242.384627,18.6418477 227.655204,18.9571229 C217.72928,19.1756712 209.354182,22.9261237 202.762602,30.1076471 C192.929755,40.814687 190.538499,58.4783145 196.947119,73.0649284 C202.243835,85.1193024 212.071207,92.033914 223.911139,92.033914 C224.098661,92.033914 224.285728,92.0330015 224.474619,92.0288952 C232.960132,91.8723982 238.184302,88.1680279 242.271474,83.683454 L242.271474,90.5939593 L256.502662,90.5939593 L256.502662,57.2765271 L241.913311,60.2162066" id="Fill-4" fill="#FAF4EA"></path>
            <path d="M108.464272,49.5776056 C107.826878,49.2623303 107.138382,48.9365611 106.417949,48.5957353 C101.426471,46.2341365 94.5898793,42.9997134 93.6860294,37.5382881 C92.8506184,32.4865837 95.4887104,29.1025075 98.2919683,28.0959992 C101.537342,26.9293439 104.887655,27.7163914 107.111463,30.1167722 C108.95977,32.1119947 109.847651,34.9111463 109.611765,38.0018477 L109.577089,38.4608446 L124.37632,33.0902149 C121.753741,23.3486199 112.063703,18.9461727 102.985509,18.9461727 C102.710385,18.9461727 102.437085,18.950279 102.162417,18.9571229 C91.2153846,19.2523228 85.6367006,24.4951998 82.8845437,28.8424397 C78.3771569,35.9619118 79.7039593,46.5384615 85.9090875,52.9183371 C89.2041931,56.3078884 93.4437557,58.468733 97.1846267,60.3749849 C98.092583,60.8385445 98.9818326,61.2911538 99.8332127,61.7487821 C100.734325,62.232417 101.649125,62.6891327 102.5329,63.1298793 C106.730486,65.2218288 110.354099,67.0299849 111.831923,71.1454449 C112.936527,74.2247398 112.703379,77.0147662 111.157115,79.2121116 C109.403254,81.7055694 106.098567,83.2545701 102.5329,83.2545701 C98.8791742,83.2545701 95.7916667,81.5828356 94.2759729,78.7823152 C93.1782127,76.7546983 92.6690271,74.159951 92.6256825,70.3693477 L92.6110822,68.9900754 L91.5306599,69.1570664 L77.1055618,73.7479487 C78.5751735,85.6120626 88.2355543,90.7933446 97.0523115,91.6648002 C98.2554676,91.7834276 99.4668363,91.8441101 100.653567,91.8441101 C114.799891,91.8441101 125.605026,83.4525867 126.348729,71.8941667 C127.18779,58.8364781 116.366229,53.4854676 108.464272,49.5776056" id="Fill-5" fill="#FAF4EA"></path>
            <path d="M36.8219608,36.3547511 C47.7242798,47.1868062 54.6813235,55.2667044 54.1269683,69.2642873 C58.8633974,60.4543741 63.1755053,44.5108446 46.2688122,28.3615422 C33.1650415,15.8426961 30.4010219,6.06733786 30.239506,0.340369532 C25.5984351,7.20251131 20.4614103,20.1023341 36.8219608,36.3547511 Z" id="Fill-7" fill="#FAF4EA"></path>
            <mask id="mask-2" fill="white">
                <use xlink:href="#path-1"></use>
            </mask>
            <g id="Clip-9"></g>
            <path d="M17.4158786,19.9522247 C12.7743514,26.8143665 7.63778281,39.7109955 23.9997021,55.9652376 C34.9015649,66.8000302 41.8590649,74.8799284 41.3047097,88.8747738 C46.03977,80.0662293 50.3518778,64.1240686 33.4451848,47.9720287 C20.3441516,35.4545513 17.5787632,25.6791931 17.4158786,19.9522247" id="Fill-8" fill="#FAF4EA" mask="url(#mask-2)"></path>
            <path d="M11.1774434,75.5665988 C22.0797624,86.3981976 29.0354374,94.478552 28.4810822,108.476135 C33.2165988,99.6634842 37.5268816,83.7208673 20.6229261,67.5733899 C7.52234917,55.0559125 4.75513575,45.2791855 4.59361991,39.5522172 C-0.0474509804,46.4157278 -5.18401961,59.3123567 11.1774434,75.5665988 Z" id="Fill-10" fill="#FAF4EA" mask="url(#mask-2)"></path>
        </g>
    </g>
</svg>